<svg id="Layer_1" data-name="Layer 1" xmlns="http://www.w3.org/2000/svg" viewBox="0 0 51.11 90.24"><defs><style>.cls-1,.cls-2,.cls-4,.cls-5{fill:none;}.cls-1,.cls-2,.cls-3,.cls-4{stroke:#000;stroke-miterlimit:10;}.cls-2,.cls-3{stroke-width:0.25px;}.cls-3,.cls-6{fill:#fff;}.cls-4{stroke-width:0.5px;}</style></defs><title>skuuni</title><path class="cls-1" d="M712.5,350.63c14.5,0,26.5,10.62,26.5,14.12s-1.25,10.75-3.5,13a7.32,7.32,0,0,1-4.75,2.25s5.5-2.75,6.25,0-.25,4.75-3,6-3.5-2-3.5-2a24.37,24.37,0,0,1-5,6c-3.75,3.5-7.5,3-7.5,3l.5,2.11,3.27,1.94,3.73,1.18h4l.75,4.75,3.5,4.75L732.5,409s6.38,12.38,4.13,14.75a2.86,2.86,0,0,1-4.38,0s1.13,4.75,0,6.75S728,433,728,433l.75,4.75s-11.75,3.5-16.75,1.5-6.12-1.87-9.5-2.5a6.71,6.71,0,0,1-4.64-3s2.27-6,.64-6,.5-7.75.5-7.75-4.89,2.88-7.5,2-1.75-6.87-1.75-6.87l4.63-6.75a2.1,2.1,0,0,1-1.5-1c-.75-1,8.84-8.62,8.84-8.62l2.23-2.92,4.8-.71V393.5l-5.75-.87-4.25-3.38A31.57,31.57,0,0,1,693.5,384c-1.75-2.5.75-7,.75-7s-2,.75-4.5-2.5S691,370,691,370l2.75.75-.5-3.5s-.37,2-1.62-1.25,1.61-10.64,3.87-11.75S700.5,350.63,712.5,350.63Z" transform="translate(-688.39 -350.13)"/><path class="cls-2" d="M701.46,385.51c-.26-.95,4.52,2.75,7,2s-1.12,1.38-3.56,1.38S701.72,386.46,701.46,385.51Z" transform="translate(-688.39 -350.13)"/><polygon class="cls-2" points="6.48 19.5 9.23 18.38 9.8 18.94 6.8 20.56 6.48 19.5"/><polygon class="cls-2" points="33.86 24.44 34.3 23.69 30.48 21.13 30.48 22.19 33.86 24.44"/><path class="cls-2" d="M703.13,381.44c-.32.44.48,1.37.93,1.37a3.9,3.9,0,0,0,1.34-.56l1.16-3.06A28.15,28.15,0,0,0,703.13,381.44Z" transform="translate(-688.39 -350.13)"/><path class="cls-2" d="M706.71,379.19l-1.26,3a3.86,3.86,0,0,0,.59,1.33c.33.31,1.56.17,1.63-.36A29,29,0,0,0,706.71,379.19Z" transform="translate(-688.39 -350.13)"/><path class="cls-2" d="M702.5,375.56c-.94-.68.19-2.06-2.44-2.65s-4.68,1.65-4.68,1.65,1.75,3.44,3.31,3.44,4.36-1.66,4.36-1.66S703.44,376.25,702.5,375.56Zm-2.64,1.91a1.93,1.93,0,1,1,2.17-1.92A2.06,2.06,0,0,1,699.86,377.47Z" transform="translate(-688.39 -350.13)"/><ellipse class="cls-2" cx="11.47" cy="25.42" rx="2.17" ry="1.92"/><line class="cls-2" x1="7.63" y1="23.86" x2="7.63" y2="23.13"/><line class="cls-2" x1="8.17" y1="23.49" x2="8.17" y2="22.78"/><line class="cls-2" x1="8.83" y1="23.14" x2="8.83" y2="22.68"/><line class="cls-2" x1="9.3" y1="22.78" x2="9.3" y2="22.38"/><line class="cls-2" x1="9.88" y1="22.78" x2="9.8" y2="22.38"/><line class="cls-2" x1="10.36" y1="22.78" x2="10.36" y2="22.38"/><line class="cls-2" x1="10.86" y1="22.58" x2="10.86" y2="22.13"/><line class="cls-2" x1="11.67" y1="22.78" x2="11.47" y2="22.13"/><line class="cls-2" x1="12.14" y1="22.91" x2="12.14" y2="22.45"/><line class="cls-2" x1="12.67" y1="23.13" x2="13.06" y2="22.58"/><path class="cls-2" d="M712.5,379.28s2.56,2.18,4.11,2.17a16.63,16.63,0,0,0,4.49-1.3s-.85-3.25-3.46-3.88-2.55,1.17-3.69,1.37S712.5,379.28,712.5,379.28Zm2.2-1.52a2.19,2.19,0,1,1,1.09,2.69A2,2,0,0,1,714.7,377.76Z" transform="translate(-688.39 -350.13)"/><line class="cls-3" x1="24.56" y1="28.16" x2="24.11" y2="27.13"/><line class="cls-3" x1="25.16" y1="27.64" x2="24.86" y2="26.63"/><line class="cls-3" x1="26.13" y1="27.23" x2="25.86" y2="26.63"/><line class="cls-3" x1="26.96" y1="26.43" x2="26.96" y2="26.01"/><line class="cls-3" x1="27.73" y1="26.01" x2="27.73" y2="25.42"/><line class="cls-3" x1="28.67" y1="26.01" x2="28.67" y2="25.28"/><line class="cls-3" x1="29.25" y1="26.15" x2="29.25" y2="25.42"/><line class="cls-3" x1="30" y1="26.43" x2="30.38" y2="25.78"/><line class="cls-3" x1="31" y1="27.13" x2="31.61" y2="26.63"/><line class="cls-3" x1="31.66" y1="27.88" x2="32.39" y2="27.64"/><path class="cls-2" d="M701.06,356.31s0-1.68,1-1.68,1,1.31,1,1.31" transform="translate(-688.39 -350.13)"/><path class="cls-2" d="M703.13,357.06s.12.38,1,.88.87-.44.87-.44" transform="translate(-688.39 -350.13)"/><path class="cls-2" d="M710.25,353.88a1,1,0,0,1,1.56-.57c1.14.66.69,1.32.69,1.32" transform="translate(-688.39 -350.13)"/><polyline class="cls-2" points="26.13 11 28.67 9.5 28.67 11.56"/><path class="cls-2" d="M722.13,363.5s.75-1.12,1.37-.37-.69,1.5-.69,1.5" transform="translate(-688.39 -350.13)"/><path class="cls-2" d="M727,365.94s1.38-.44,1.38.69a1.52,1.52,0,0,1-1.07,1.43" transform="translate(-688.39 -350.13)"/><path class="cls-2" d="M730.13,365.44s1.5.31,1.5.94-1.82,1.68-1.82,1.68" transform="translate(-688.39 -350.13)"/><path class="cls-2" d="M733.06,363.88a4.19,4.19,0,0,1,1.69,0c.94.18,0,1.56,0,1.56" transform="translate(-688.39 -350.13)"/><path class="cls-2" d="M735.69,367s1.25.31,1.25.69-.88.81-.88.81" transform="translate(-688.39 -350.13)"/><path class="cls-2" d="M733.06,370.25a3.7,3.7,0,0,1,1.32.44c.79.4-.66,1.25-.66,1.25" transform="translate(-688.39 -350.13)"/><path class="cls-2" d="M707.67,357.5c.27.44,1.68,0,1.68,0" transform="translate(-688.39 -350.13)"/><path class="cls-1" d="M708.75,395.13s.36,4.93,4.2,4.93,5.55-4.93,5.55-4.93" transform="translate(-688.39 -350.13)"/><path class="cls-4" d="M707.12,395.37s-2.85,7.38-1.24,8,4.62-3.32,6-3.32,1.22,4.25,3,4.57,6.56-7.32,6.56-7.32" transform="translate(-688.39 -350.13)"/><path class="cls-4" d="M707.32,403.11s.83,8.85,1.83,8.85,5.05-7.72,5.05-7.72" transform="translate(-688.39 -350.13)"/><path class="cls-4" d="M730.25,403s-2.56-3-3.5-3-6.62,5.7-6.12,7.54,3,5.46,4.06,5.77,8.16-3.61,8.16-3.61" transform="translate(-688.39 -350.13)"/><path class="cls-4" d="M701.15,399.22s-.46,4.4-.65,4.91-.58-.18-.71.21.8.29.63.72-1.23,0-1.54.32,1.29.5,1.31.87-1-.42-1.31.13.43.41.75.81-.5-.31-.94.35.56,1,.56,1-1.25,1.31-2.19,1.31-2.68-1.43-2.68-1.43" transform="translate(-688.39 -350.13)"/><path class="cls-4" d="M697.9,425.91l7.48,3.34a.7.7,0,0,1,.37-.69c.44-.25,5.37.22,5.69.69s0,.5,0,.5,6.94-.75,7.5-.69,7-2.75,7-2.75l.72,2.74-7.57,2.76h-7.88l-.49.38s-5.14-.22-5.38-.56l-.63-.94-5.75-.94" transform="translate(-688.39 -350.13)"/><path class="cls-4" d="M690.81,416.44c.5.31,6.25-6.63,6.25-6.63" transform="translate(-688.39 -350.13)"/><path class="cls-4" d="M720.63,407.54c0-.61-5.58-.31-6,0s-2.35,1.59-2.35,2.27,2.28-.81,2.28-.81-2.28,1.31-2.28,1.88,2.66-.75,2.66-.75a31.47,31.47,0,0,0-2,2.56c-.38.64,2.44-.73,2.44-.73s-1.69,2.77-1.43,3.23,2.5-1.5,2.5-1.5a5.27,5.27,0,0,1,2,.19c.75.31.5,1.82,1.13,3.06.75,1.49,12.4,7.33,12.62,6.81" transform="translate(-688.39 -350.13)"/><path class="cls-4" d="M730.19,416c.44-.53-4.21-2.87-4.21-2.87" transform="translate(-688.39 -350.13)"/><path class="cls-2" d="M693.25,367.25h.94l.37-.5s1.32-.25.82,0,0-1,0-1.31,1.15,0,1.15,0-.63-.19,0-.5.66,0,.66,0,0-1.1.47-1.15a.49.49,0,0,1,.58.34l.48-.75h.75s.25-1.12,0-.82.56,0,.56,0-.47-.12,0-.5.47.44.47.44l.92-.81h.61l1.07-.25.62.25h2.56l1.36.37a1.6,1.6,0,0,1,.52.44c.32.37.87-.5.87-.5l.29.19,2.07.06.58.62h1.25l.38.88h.76l.49,0,.91,0,.59.59.68-.55s1.18.52.88.84,1.45.31,1.45.31a3.42,3.42,0,0,1,.31.91c0,.28.72,0,.72,0l1.27.9.44.21.56-.21a7.62,7.62,0,0,0,.5,1.31c.25.44,1.06-.31,1.06-.31s-.37,1.19,0,1.19h1.06s-.43.87,0,1.31a.69.69,0,0,0,.94,0l.75,1,1.38.44s-.69.11-.69.56.69.66.69.66l-.69.72.69.36v1.85s-.94.8-.69,1.21,1.06,0,1.06,0l-.62,1.68s.93-.34,1,.06,1.62,1.21,1.62,1.21" transform="translate(-688.39 -350.13)"/><path class="cls-4" d="M706.25,395.81s-1.19,4.82-1.19,5.5.43,3.65,0,4-4.56-1.18-4.56-1.18,5.62,1.67,5.25,2.54S702,407,702,407s4.12,1.19,3.75,1.88-4.12,0-4.12,0,3.5,1.12,3.31,1.75-4.44,0-4.44,0,4.56.79,4.06,1.33-5.68,0-5.68,0l.5,7.29L699,420" transform="translate(-688.39 -350.13)"/><path class="cls-4" d="M701.45,412.56c0,.52-2.27,3.89-2.27,3.89l-.3-4.49S701.45,412,701.45,412.56Z" transform="translate(-688.39 -350.13)"/><path class="cls-4" d="M721.48,398.26c.31.46-4.06,6.21-4.06,6.21s-1,2.11-.5,2.66,3.89-.2,4,.52" transform="translate(-688.39 -350.13)"/><path class="cls-4" d="M715.88,415c.42,1,6.93,7.88,7.31,8.43s3.53.69,3.53.69,1.18,1,.59,1.93A1.73,1.73,0,0,1,726,427c0,.07,1,5.38,2.12,5.5s4.4-2.75,4.15-3.06-.13-7.25,0-5.69C732.43,425.82,715.68,414.53,715.88,415Z" transform="translate(-688.39 -350.13)"/><path class="cls-5" d="M721.77,397.07" transform="translate(-688.39 -350.13)"/><path class="cls-2" d="M691.31,373.63s-.68-.44.25-1.69,2.13.56,2.13.56" transform="translate(-688.39 -350.13)"/><path class="cls-2" d="M731.63,382.38a2.63,2.63,0,0,1,1.43-1.68c1.05-.32,2.11,1.24,2.11,1.24" transform="translate(-688.39 -350.13)"/><path class="cls-2" d="M701.46,385.51q2.74,4,7.89,1.9" transform="translate(-688.39 -350.13)"/><line class="cls-3" x1="14.36" y1="35.72" x2="13.93" y2="37.33"/><line class="cls-2" x1="15.74" y1="36.4" x2="15.12" y2="38.41"/><path class="cls-2" d="M705.93,387.26" transform="translate(-688.39 -350.13)"/><line class="cls-2" x1="17.54" y1="37.14" x2="17.38" y2="38.68"/><path d="M716.75,377.17a1.5,1.5,0,0,0,0,3A1.5,1.5,0,0,0,716.75,377.17Z" transform="translate(-688.39 -350.13)"/><path d="M699.83,374a1.5,1.5,0,0,0,0,3A1.5,1.5,0,0,0,699.83,374Z" transform="translate(-688.39 -350.13)"/><path d="M720.33,373.28a.05.05,0,0,0,0,.1A.05.05,0,1,0,720.33,373.28Z" transform="translate(-688.39 -350.13)"/><ellipse class="cls-6" cx="22.11" cy="53.88" rx="0.5" ry="1"/><path d="M710.5,403c-.28,0-.5.45-.5,1s.22,1,.5,1,.5-.45.5-1-.22-1-.5-1Z" transform="translate(-688.39 -350.13)"/><ellipse class="cls-6" cx="21.61" cy="57.38" rx="0.5" ry="1"/><path d="M710,406.5c-.28,0-.5.45-.5,1s.22,1,.5,1,.5-.45.5-1-.22-1-.5-1Z" transform="translate(-688.39 -350.13)"/></svg>